<svg width="228" height="30" viewBox="0 0 228 30" fill="none" xmlns="http://www.w3.org/2000/svg">
<line y1="0.5" x2="228" y2="0.5" stroke="black"/>
<line y1="29.5" x2="228" y2="29.5" stroke="black"/>
<path d="M5.314 8.42H8.068L10.138 18.518L12.28 8.42H14.962L15.232 23H13.252L13.036 12.866L10.966 23H9.364L7.258 12.83L7.06 23H5.062L5.314 8.42ZM20.3731 23.162C19.2571 23.162 18.4231 22.856 17.8711 22.244C17.3191 21.62 17.0431 20.72 17.0431 19.544V16.052C17.0431 14.876 17.3191 13.982 17.8711 13.37C18.4231 12.746 19.2571 12.434 20.3731 12.434C21.4891 12.434 22.3231 12.746 22.8751 13.37C23.4391 13.982 23.7211 14.876 23.7211 16.052V19.544C23.7211 20.72 23.4391 21.62 22.8751 22.244C22.3231 22.856 21.4891 23.162 20.3731 23.162ZM20.3911 21.47C20.7631 21.47 21.0091 21.326 21.1291 21.038C21.2491 20.738 21.3091 20.3 21.3091 19.724V15.89C21.3091 15.314 21.2491 14.876 21.1291 14.576C21.0091 14.276 20.7631 14.126 20.3911 14.126C20.0071 14.126 19.7551 14.276 19.6351 14.576C19.5151 14.876 19.4551 15.314 19.4551 15.89V19.724C19.4551 20.3 19.5151 20.738 19.6351 21.038C19.7551 21.326 20.0071 21.47 20.3911 21.47ZM29.8965 23.162C29.2125 23.162 28.5405 22.85 27.8805 22.226V23H25.4505V8.42H27.8805V13.388C28.5405 12.752 29.2485 12.434 30.0045 12.434C30.8445 12.434 31.4385 12.782 31.7865 13.478C32.1345 14.174 32.3085 14.984 32.3085 15.908V19.436C32.3085 20.552 32.1105 21.452 31.7145 22.136C31.3305 22.82 30.7245 23.162 29.8965 23.162ZM28.9605 21.452C29.3205 21.452 29.5605 21.284 29.6805 20.948C29.8005 20.612 29.8605 20.138 29.8605 19.526V15.782C29.8605 15.254 29.7945 14.84 29.6625 14.54C29.5305 14.228 29.2965 14.072 28.9605 14.072C28.6125 14.072 28.2525 14.216 27.8805 14.504V21.092C28.2165 21.332 28.5765 21.452 28.9605 21.452ZM34.0646 8.906H36.5126V10.94H34.0646V8.906ZM34.0646 12.596H36.5126V23H34.0646V12.596ZM38.6195 8.42H41.0495V23H38.6195V8.42ZM43.0646 8.906H45.5126V10.94H43.0646V8.906ZM43.0646 12.596H45.5126V23H43.0646V12.596ZM47.1335 21.398L50.1395 14.396H47.3855V12.596H52.7135V14.018L49.6895 21.182H52.7135V23H47.1335V21.398ZM56.1356 23.162C55.6916 23.162 55.2956 23.042 54.9476 22.802C54.6116 22.562 54.3476 22.256 54.1556 21.884C53.9756 21.5 53.8856 21.104 53.8856 20.696C53.8856 19.892 54.0716 19.232 54.4436 18.716C54.8276 18.188 55.2956 17.78 55.8476 17.492C56.4116 17.204 57.1556 16.886 58.0796 16.538V15.638C58.0796 15.158 58.0196 14.81 57.8996 14.594C57.7916 14.366 57.5756 14.252 57.2516 14.252C56.6996 14.252 56.4116 14.636 56.3876 15.404L56.3516 16.034L54.0296 15.944C54.0656 14.744 54.3596 13.862 54.9116 13.298C55.4756 12.722 56.3216 12.434 57.4496 12.434C58.4696 12.434 59.2256 12.716 59.7176 13.28C60.2096 13.832 60.4556 14.618 60.4556 15.638V20.444C60.4556 21.188 60.5156 22.04 60.6356 23H58.4396C58.3196 22.352 58.2356 21.854 58.1876 21.506C58.0436 21.974 57.7976 22.37 57.4496 22.694C57.1136 23.006 56.6756 23.162 56.1356 23.162ZM57.0356 21.344C57.2396 21.344 57.4316 21.272 57.6116 21.128C57.8036 20.984 57.9596 20.828 58.0796 20.66V17.744C57.4436 18.116 56.9696 18.476 56.6576 18.824C56.3456 19.16 56.1896 19.586 56.1896 20.102C56.1896 20.486 56.2616 20.792 56.4056 21.02C56.5616 21.236 56.7716 21.344 57.0356 21.344ZM65.1764 23.126C64.2284 23.126 63.5564 22.898 63.1604 22.442C62.7764 21.986 62.5844 21.308 62.5844 20.408V14.198H61.5404V12.596H62.5844V9.482H65.0504V12.596H66.6164V14.198H65.0504V20.192C65.0504 20.54 65.1224 20.792 65.2664 20.948C65.4224 21.104 65.6624 21.182 65.9864 21.182C66.2864 21.182 66.5384 21.158 66.7424 21.11V23C66.2624 23.084 65.7404 23.126 65.1764 23.126ZM68.2189 8.906H70.6669V10.94H68.2189V8.906ZM68.2189 12.596H70.6669V23H68.2189V12.596ZM75.7618 23.162C74.6458 23.162 73.8118 22.856 73.2598 22.244C72.7078 21.62 72.4318 20.72 72.4318 19.544V16.052C72.4318 14.876 72.7078 13.982 73.2598 13.37C73.8118 12.746 74.6458 12.434 75.7618 12.434C76.8778 12.434 77.7118 12.746 78.2638 13.37C78.8278 13.982 79.1098 14.876 79.1098 16.052V19.544C79.1098 20.72 78.8278 21.62 78.2638 22.244C77.7118 22.856 76.8778 23.162 75.7618 23.162ZM75.7798 21.47C76.1518 21.47 76.3978 21.326 76.5178 21.038C76.6378 20.738 76.6978 20.3 76.6978 19.724V15.89C76.6978 15.314 76.6378 14.876 76.5178 14.576C76.3978 14.276 76.1518 14.126 75.7798 14.126C75.3958 14.126 75.1438 14.276 75.0238 14.576C74.9038 14.876 74.8438 15.314 74.8438 15.89V19.724C74.8438 20.3 74.9038 20.738 75.0238 21.038C75.1438 21.326 75.3958 21.47 75.7798 21.47ZM80.8032 12.596H83.2512V13.622C84.0792 12.83 84.9192 12.434 85.7712 12.434C86.3592 12.434 86.7972 12.65 87.0852 13.082C87.3852 13.514 87.5352 14.06 87.5352 14.72V23H85.0872V15.206C85.0872 14.87 85.0332 14.624 84.9252 14.468C84.8292 14.312 84.6492 14.234 84.3852 14.234C84.0972 14.234 83.7192 14.402 83.2512 14.738V23H80.8032V12.596ZM93.8675 8.42H99.8615V10.256H96.5135V14.504H99.2495V16.358H96.5135V23H93.8675V8.42ZM104.291 23.162C103.175 23.162 102.341 22.856 101.789 22.244C101.237 21.62 100.961 20.72 100.961 19.544V16.052C100.961 14.876 101.237 13.982 101.789 13.37C102.341 12.746 103.175 12.434 104.291 12.434C105.407 12.434 106.241 12.746 106.793 13.37C107.357 13.982 107.639 14.876 107.639 16.052V19.544C107.639 20.72 107.357 21.62 106.793 22.244C106.241 22.856 105.407 23.162 104.291 23.162ZM104.309 21.47C104.681 21.47 104.927 21.326 105.047 21.038C105.167 20.738 105.227 20.3 105.227 19.724V15.89C105.227 15.314 105.167 14.876 105.047 14.576C104.927 14.276 104.681 14.126 104.309 14.126C103.925 14.126 103.673 14.276 103.553 14.576C103.433 14.876 103.373 15.314 103.373 15.89V19.724C103.373 20.3 103.433 20.738 103.553 21.038C103.673 21.326 103.925 21.47 104.309 21.47ZM109.386 12.596H111.834V14.198C112.182 13.586 112.536 13.148 112.896 12.884C113.256 12.608 113.658 12.47 114.102 12.47C114.258 12.47 114.384 12.482 114.48 12.506V15.044C114.096 14.9 113.76 14.828 113.472 14.828C112.824 14.828 112.278 15.164 111.834 15.836V23H109.386V12.596ZM122.395 8.42H125.239L128.155 23H125.689L125.113 19.634H122.575L121.981 23H119.479L122.395 8.42ZM124.825 17.942L123.835 11.822L122.845 17.942H124.825ZM129.963 14.306H128.847V12.596H129.963V11.93C129.963 11.222 130.023 10.652 130.143 10.22C130.263 9.788 130.509 9.452 130.881 9.212C131.253 8.972 131.799 8.852 132.519 8.852C132.915 8.852 133.359 8.888 133.851 8.96V10.76C133.527 10.7 133.305 10.67 133.185 10.67C132.897 10.67 132.693 10.76 132.573 10.94C132.453 11.12 132.393 11.39 132.393 11.75V12.596H133.851V14.306H132.393V23H129.963V14.306ZM137.986 26.42C136.882 26.42 136.006 26.246 135.358 25.898C134.71 25.562 134.386 25.052 134.386 24.368C134.386 23.912 134.53 23.51 134.818 23.162C135.106 22.826 135.484 22.55 135.952 22.334C135.556 22.214 135.25 22.04 135.034 21.812C134.83 21.572 134.728 21.284 134.728 20.948C134.728 20.564 134.818 20.228 134.998 19.94C135.19 19.652 135.484 19.334 135.88 18.986C135.508 18.686 135.226 18.308 135.034 17.852C134.854 17.384 134.764 16.796 134.764 16.088C134.764 14.9 135.046 13.994 135.61 13.37C136.186 12.746 137.02 12.434 138.112 12.434C139.168 12.434 139.936 12.758 140.416 13.406C140.524 13.238 140.698 13.052 140.938 12.848C141.178 12.644 141.448 12.47 141.748 12.326L142.09 12.182L142.666 13.496C142.45 13.556 142.156 13.664 141.784 13.82C141.412 13.964 141.142 14.09 140.974 14.198C141.082 14.438 141.172 14.738 141.244 15.098C141.316 15.458 141.352 15.8 141.352 16.124C141.352 17.264 141.088 18.152 140.56 18.788C140.032 19.412 139.216 19.724 138.112 19.724C137.632 19.724 137.164 19.652 136.708 19.508C136.504 19.808 136.402 20.048 136.402 20.228C136.402 20.372 136.474 20.486 136.618 20.57C136.762 20.642 137.002 20.696 137.338 20.732L139.516 20.948C141.196 21.128 142.036 22.004 142.036 23.576C142.036 24.524 141.706 25.232 141.046 25.7C140.398 26.18 139.378 26.42 137.986 26.42ZM138.112 18.176C138.52 18.176 138.79 18.02 138.922 17.708C139.054 17.396 139.12 16.856 139.12 16.088C139.12 15.332 139.054 14.792 138.922 14.468C138.79 14.144 138.52 13.982 138.112 13.982C137.704 13.982 137.428 14.144 137.284 14.468C137.14 14.78 137.068 15.32 137.068 16.088C137.068 16.808 137.14 17.336 137.284 17.672C137.428 18.008 137.704 18.176 138.112 18.176ZM138.256 24.584C138.94 24.584 139.444 24.512 139.768 24.368C140.104 24.236 140.272 24.002 140.272 23.666C140.272 23.378 140.164 23.162 139.948 23.018C139.744 22.886 139.354 22.79 138.778 22.73L136.996 22.568C136.768 22.76 136.594 22.94 136.474 23.108C136.354 23.288 136.294 23.486 136.294 23.702C136.294 24.002 136.444 24.224 136.744 24.368C137.044 24.512 137.548 24.584 138.256 24.584ZM143.4 8.42H145.848V13.604C146.628 12.824 147.486 12.434 148.422 12.434C149.01 12.434 149.442 12.65 149.718 13.082C150.006 13.514 150.15 14.06 150.15 14.72V23H147.72V15.206C147.72 14.87 147.666 14.624 147.558 14.468C147.462 14.312 147.282 14.234 147.018 14.234C146.694 14.234 146.304 14.408 145.848 14.756V23H143.4V8.42ZM153.975 23.162C153.531 23.162 153.135 23.042 152.787 22.802C152.451 22.562 152.187 22.256 151.995 21.884C151.815 21.5 151.725 21.104 151.725 20.696C151.725 19.892 151.911 19.232 152.283 18.716C152.667 18.188 153.135 17.78 153.687 17.492C154.251 17.204 154.995 16.886 155.919 16.538V15.638C155.919 15.158 155.859 14.81 155.739 14.594C155.631 14.366 155.415 14.252 155.091 14.252C154.539 14.252 154.251 14.636 154.227 15.404L154.191 16.034L151.869 15.944C151.905 14.744 152.199 13.862 152.751 13.298C153.315 12.722 154.161 12.434 155.289 12.434C156.309 12.434 157.065 12.716 157.557 13.28C158.049 13.832 158.295 14.618 158.295 15.638V20.444C158.295 21.188 158.355 22.04 158.475 23H156.279C156.159 22.352 156.075 21.854 156.027 21.506C155.883 21.974 155.637 22.37 155.289 22.694C154.953 23.006 154.515 23.162 153.975 23.162ZM154.875 21.344C155.079 21.344 155.271 21.272 155.451 21.128C155.643 20.984 155.799 20.828 155.919 20.66V17.744C155.283 18.116 154.809 18.476 154.497 18.824C154.185 19.16 154.029 19.586 154.029 20.102C154.029 20.486 154.101 20.792 154.245 21.02C154.401 21.236 154.611 21.344 154.875 21.344ZM160.098 12.596H162.546V13.622C163.374 12.83 164.214 12.434 165.066 12.434C165.654 12.434 166.092 12.65 166.38 13.082C166.68 13.514 166.83 14.06 166.83 14.72V23H164.382V15.206C164.382 14.87 164.328 14.624 164.22 14.468C164.124 14.312 163.944 14.234 163.68 14.234C163.392 14.234 163.014 14.402 162.546 14.738V23H160.098V12.596ZM172.64 8.42H174.854L176.06 17.87L177.572 8.456H179.372L180.938 17.87L182.126 8.42H184.322L182.288 23H180.128L178.508 13.226L176.906 23H174.692L172.64 8.42ZM188.877 23.162C187.761 23.162 186.927 22.856 186.375 22.244C185.823 21.62 185.547 20.72 185.547 19.544V16.052C185.547 14.876 185.823 13.982 186.375 13.37C186.927 12.746 187.761 12.434 188.877 12.434C189.993 12.434 190.827 12.746 191.379 13.37C191.943 13.982 192.225 14.876 192.225 16.052V19.544C192.225 20.72 191.943 21.62 191.379 22.244C190.827 22.856 189.993 23.162 188.877 23.162ZM188.895 21.47C189.267 21.47 189.513 21.326 189.633 21.038C189.753 20.738 189.813 20.3 189.813 19.724V15.89C189.813 15.314 189.753 14.876 189.633 14.576C189.513 14.276 189.267 14.126 188.895 14.126C188.511 14.126 188.259 14.276 188.139 14.576C188.019 14.876 187.959 15.314 187.959 15.89V19.724C187.959 20.3 188.019 20.738 188.139 21.038C188.259 21.326 188.511 21.47 188.895 21.47ZM193.918 12.596H196.276V13.514C196.972 12.782 197.788 12.416 198.724 12.416C199.144 12.416 199.504 12.524 199.804 12.74C200.104 12.944 200.326 13.256 200.47 13.676C201.19 12.836 202.066 12.416 203.098 12.416C203.674 12.416 204.136 12.626 204.484 13.046C204.844 13.466 205.024 14.072 205.024 14.864V23H202.684V15.098C202.684 14.714 202.618 14.444 202.486 14.288C202.366 14.132 202.18 14.054 201.928 14.054C201.736 14.054 201.52 14.108 201.28 14.216C201.052 14.324 200.842 14.474 200.65 14.666V14.864V23H198.328V15.098C198.328 14.714 198.262 14.444 198.13 14.288C197.998 14.132 197.806 14.054 197.554 14.054C197.362 14.054 197.152 14.108 196.924 14.216C196.696 14.324 196.48 14.474 196.276 14.666V23H193.918V12.596ZM209.988 23.162C208.836 23.162 207.99 22.844 207.45 22.208C206.91 21.56 206.64 20.606 206.64 19.346V16.25C206.64 14.978 206.91 14.024 207.45 13.388C208.002 12.752 208.848 12.434 209.988 12.434C211.164 12.434 211.992 12.764 212.472 13.424C212.964 14.084 213.21 15.08 213.21 16.412V17.906H209.07V19.958C209.07 20.462 209.142 20.828 209.286 21.056C209.442 21.284 209.682 21.398 210.006 21.398C210.318 21.398 210.54 21.29 210.672 21.074C210.816 20.846 210.888 20.504 210.888 20.048V19.166H213.192V19.886C213.192 20.954 212.922 21.77 212.382 22.334C211.842 22.886 211.044 23.162 209.988 23.162ZM210.888 16.7V15.71C210.888 15.17 210.822 14.786 210.69 14.558C210.558 14.318 210.324 14.198 209.988 14.198C209.64 14.198 209.4 14.324 209.268 14.576C209.136 14.828 209.07 15.296 209.07 15.98V16.7H210.888ZM214.872 12.596H217.32V13.622C218.148 12.83 218.988 12.434 219.84 12.434C220.428 12.434 220.866 12.65 221.154 13.082C221.454 13.514 221.604 14.06 221.604 14.72V23H219.156V15.206C219.156 14.87 219.102 14.624 218.994 14.468C218.898 14.312 218.718 14.234 218.454 14.234C218.166 14.234 217.788 14.402 217.32 14.738V23H214.872V12.596Z" fill="black"/>
</svg>
